<?xml version="1.0" encoding="UTF-8" standalone="no"?><!DOCTYPE svg PUBLIC "-//W3C//DTD SVG 1.1//EN" "http://www.w3.org/Graphics/SVG/1.1/DTD/svg11.dtd"><svg width="100%" height="100%" viewBox="0 0 540 540" version="1.1" xmlns="http://www.w3.org/2000/svg" xmlns:xlink="http://www.w3.org/1999/xlink" xml:space="preserve" xmlns:serif="http://www.serif.com/" style="fill-rule:evenodd;clip-rule:evenodd;stroke-linejoin:round;stroke-miterlimit:2;"><rect id="Artboard1" x="0" y="0" width="540" height="540" style="fill:none;"/><g id="Artboard11" serif:id="Artboard1"><path d="M539,270c0,148.465 -120.535,269 -269,269c-148.465,0 -269,-120.535 -269,-269c0,-148.465 120.535,-269 269,-269c148.465,0 269,120.535 269,269Z" style="fill:#d59b6a;"/><path d="M539,270c-0,148.465 -120.535,269 -269,269c-148.465,-0 -269,-120.535 -269,-269c0,-148.465 120.535,-269 269,-269c148.465,0 269,120.535 269,269Zm-19,-0c-0,-137.979 -112.021,-250 -250,-250c-137.979,0 -250,112.021 -250,250c0,137.979 112.021,250 250,250c137.979,-0 250,-112.021 250,-250Z" style="fill:#52210b;fill-opacity:0.9;"/><clipPath id="_clip1"><rect id="giftbox-svgrepo-com.svg" x="67.25" y="67.25" width="405.5" height="405.5"/></clipPath><g clip-path="url(#_clip1)"><g><g><path d="M405.788,368.12l-123.591,71.353l0,-92.083l-3.944,1.973c-2.711,1.018 -5.523,1.54 -8.234,1.54c-2.672,-0 -5.396,-0.509 -8.132,-1.502l-0.661,-0.089l-2.138,-0.993l-1.26,-0.636l0,91.79l-123.591,-71.353l0,-82.665l-24.356,-12.255l-0,101.958c-0,4.352 2.328,8.373 6.095,10.536l147.948,85.44c1.87,1.082 3.983,1.629 6.095,1.629c2.113,-0 4.212,-0.535 6.096,-1.629l147.934,-85.44c3.78,-2.163 6.096,-6.184 6.096,-10.536l-0,-101.983l-24.357,12.204l0,82.741Z" style="fill:#52210b;fill-rule:nonzero;"/><path d="M278.825,123.993l-5.014,-1.641c-2.456,-0.802 -5.128,-0.802 -7.61,-0l-5.001,1.641c3.258,7.483 6.21,14.978 8.794,22.105c2.608,-7.127 5.586,-14.622 8.831,-22.105Z" style="fill:#52210b;fill-rule:nonzero;"/><path d="M447.159,187.825c-0,-0.077 0.025,-0.153 0.025,-0.242c-0.012,-0.255 -0.127,-0.496 -0.152,-0.751c-0.089,-0.814 -0.242,-1.616 -0.484,-2.392c-0.127,-0.382 -0.267,-0.738 -0.42,-1.095c-0.293,-0.687 -0.649,-1.323 -1.056,-1.934c-0.242,-0.331 -0.433,-0.662 -0.7,-0.967c-0.484,-0.598 -1.043,-1.107 -1.654,-1.616c-0.268,-0.229 -0.522,-0.497 -0.815,-0.7c-0.076,-0.038 -0.114,-0.115 -0.191,-0.166c-0.878,-0.585 -1.832,-1.03 -2.825,-1.361c-0.025,-0 -0.051,-0.026 -0.076,-0.038l-30.618,-10.066c-1.412,1.565 -2.838,3.054 -4.174,4.403c-13.998,13.998 -37.617,25.654 -59.53,34.321l26.075,10.587l-0,60.065l-36.141,18.223l0,-62.75l-41.383,-21.875c10.689,-2.876 76.595,-21.405 102.351,-47.187c7.534,-7.508 17.447,-19.151 16.798,-33.506c-0.636,-14.316 -10.639,-22.702 -18.681,-29.434c-2.303,-1.922 -4.747,-3.958 -7.101,-6.274c-2.329,-2.329 -4.352,-4.785 -6.286,-7.101c-6.618,-7.89 -15.64,-18.706 -30.745,-18.706c-13.795,-0 -24.981,9.595 -32.183,16.81c-25.82,25.82 -44.336,91.841 -47.199,102.428c-2.851,-10.549 -21.379,-76.608 -47.212,-102.428c-7.203,-7.228 -18.389,-16.823 -32.17,-16.823c-15.106,0 -24.141,10.817 -30.758,18.707c-1.922,2.303 -3.945,4.759 -6.274,7.088c-2.329,2.328 -4.797,4.352 -7.088,6.286c-8.055,6.745 -18.058,15.118 -18.694,29.447c-0.636,14.342 9.277,25.998 16.798,33.506c25.769,25.795 91.751,44.324 102.39,47.187l-41.409,21.875l-0,62.75l-36.141,-18.223l0,-60.065l26.1,-10.6c-21.938,-8.679 -45.583,-20.336 -59.555,-34.321c-1.336,-1.336 -2.749,-2.838 -4.174,-4.403l-30.605,10.066c-0.026,-0 -0.051,0.025 -0.077,0.025c-0.967,0.331 -1.921,0.789 -2.825,1.375c-0.076,0.038 -0.114,0.114 -0.191,0.165c-0.305,0.216 -0.547,0.471 -0.827,0.7c-0.598,0.509 -1.158,1.018 -1.641,1.603c-0.268,0.306 -0.471,0.637 -0.7,0.98c-0.407,0.611 -0.764,1.26 -1.056,1.935c-0.153,0.369 -0.306,0.725 -0.42,1.107c-0.255,0.776 -0.395,1.565 -0.471,2.392c-0.038,0.255 -0.153,0.484 -0.166,0.751c0,0.076 0.026,0.153 0.026,0.242c-0,0.101 -0.038,0.203 -0.038,0.305l-0,55.331c-0,4.606 2.596,8.806 6.693,10.867l165,83.086c0.178,0.089 0.356,0.051 0.547,0.127c1.565,0.7 3.232,1.171 4.938,1.171c1.705,-0 3.372,-0.471 4.937,-1.171c0.204,-0.076 0.369,-0.038 0.547,-0.127l165.013,-83.086c4.085,-2.074 6.681,-6.273 6.681,-10.867l-0,-55.331c0.025,-0.089 -0.013,-0.204 -0.013,-0.305Zm-117.024,-90.823c23.771,-23.771 28.925,-5.484 43.407,8.985c14.456,14.469 32.73,19.622 8.958,43.394c-23.758,23.771 -95.06,42.694 -95.06,42.694c0,0 18.911,-71.301 42.695,-95.073Zm-163.638,8.972c14.469,-14.456 19.622,-32.743 43.394,-8.972c23.784,23.784 42.694,95.073 42.694,95.073c0,0 -71.301,-18.91 -95.073,-42.682c-23.771,-23.771 -5.472,-28.937 8.985,-43.419Z" style="fill:#52210b;fill-rule:nonzero;"/></g></g></g></g></svg>