<?xml version="1.0" encoding="UTF-8" standalone="no"?><!DOCTYPE svg PUBLIC "-//W3C//DTD SVG 1.1//EN" "http://www.w3.org/Graphics/SVG/1.1/DTD/svg11.dtd"><svg width="100%" height="100%" viewBox="0 0 540 540" version="1.1" xmlns="http://www.w3.org/2000/svg" xmlns:xlink="http://www.w3.org/1999/xlink" xml:space="preserve" xmlns:serif="http://www.serif.com/" style="fill-rule:evenodd;clip-rule:evenodd;stroke-linecap:round;stroke-linejoin:round;"><rect id="icon" x="0" y="0" width="540" height="540" style="fill:none;"/><g id="icon1" serif:id="icon"><path d="M539,270c0,148.465 -120.535,269 -269,269c-148.465,0 -269,-120.535 -269,-269c0,-148.465 120.535,-269 269,-269c148.465,0 269,120.535 269,269Z" style="fill:#d59b6a;"/><path d="M539,270c-0,148.465 -120.535,269 -269,269c-148.465,-0 -269,-120.535 -269,-269c0,-148.465 120.535,-269 269,-269c148.465,0 269,120.535 269,269Zm-50,-0c-0,-120.869 -98.131,-219 -219,-219c-120.869,-0 -219,98.131 -219,219c-0,120.869 98.131,219 219,219c120.869,-0 219,-98.131 219,-219Z" style="fill:#52210b;fill-opacity:0.9;"/><path d="M380.833,259.553l0,138.384l-221.666,-0l-0,-138.384m221.666,0l-221.666,0m221.666,0l15.834,0l-0,-67.45l-253.334,0l0,67.45l15.834,0m110.833,-67.45c13.194,-29.028 47.498,-87.083 79.165,-55.417c31.667,31.667 -39.582,52.778 -79.165,55.417Zm0,0c-13.194,-29.028 -47.5,-87.083 -79.167,-55.417c-31.666,31.667 39.584,52.778 79.167,55.417Z" style="fill:none;fill-rule:nonzero;stroke:#52210b;stroke-width:28.5px;"/></g></svg>